<?xml version="1.0" encoding="UTF-8"?>
<!DOCTYPE svg PUBLIC "-//W3C//DTD SVG 1.1//EN" "http://www.w3.org/Graphics/SVG/1.1/DTD/svg11.dtd">
<!-- Creator: CorelDRAW 2019 (64 Bit) -->
<svg xmlns="http://www.w3.org/2000/svg" xml:space="preserve" width="26px" height="26px" version="1.1" style="shape-rendering:geometricPrecision; text-rendering:geometricPrecision; image-rendering:optimizeQuality; fill-rule:evenodd; clip-rule:evenodd"
viewBox="0 0 0.768 0.768"
 xmlns:xlink="http://www.w3.org/1999/xlink">
 <defs>
  <style type="text/css">
   <![CDATA[
    .fil0 {fill:#1B80E4}
    .fil1 {fill:#FCFCFC}
   ]]>
  </style>
 </defs>
 <g id="Camada_x0020_1">
  <metadata id="CorelCorpID_0Corel-Layer"/>
  <g id="_1936181782336">
   <g id="_383-facebook">
    <g>
     <g>
      <path class="fil0" d="M0.672 0l-0.576 0c-0.053,0 -0.096,0.043 -0.096,0.096l0 0.576c0,0.053 0.043,0.096 0.096,0.096l0.576 0c0.053,0 0.096,-0.043 0.096,-0.096l0 -0.576c0,-0.053 -0.043,-0.096 -0.096,-0.096l0 0zm0 0z"/>
      <path class="fil1" d="M0.648 0.384l-0.12 0 0 -0.096c0,-0.027 0.021,-0.024 0.048,-0.024l0.048 0 0 -0.12 -0.096 0c-0.08,0 -0.144,0.064 -0.144,0.144l0 0.096 -0.096 0 0 0.12 0.096 0 0 0.264 0.144 0 0 -0.264 0.072 0 0.048 -0.12zm0 0z"/>
     </g>
    </g>
   </g>
   <g id="Layer_1">
   </g>
  </g>
 </g>
</svg>
