<?xml version="1.0" encoding="UTF-8"?>
<!DOCTYPE svg PUBLIC "-//W3C//DTD SVG 1.1//EN" "http://www.w3.org/Graphics/SVG/1.1/DTD/svg11.dtd">
<!-- Creator: CorelDRAW 2019 (64 Bit) -->
<svg xmlns="http://www.w3.org/2000/svg" xml:space="preserve" width="26px" height="26px" version="1.1" style="shape-rendering:geometricPrecision; text-rendering:geometricPrecision; image-rendering:optimizeQuality; fill-rule:evenodd; clip-rule:evenodd"
viewBox="0 0 0.715 0.715"
 xmlns:xlink="http://www.w3.org/1999/xlink">
 <defs>
  <style type="text/css">
   <![CDATA[
    .fil1 {fill:url(#id0)}
    .fil2 {fill:url(#id1)}
    .fil0 {fill:url(#id2)}
   ]]>
  </style>
  <linearGradient id="id0" gradientUnits="userSpaceOnUse" x1="0.23" y1="0.483" x2="0.482" y2="0.229">
   <stop offset="0" style="stop-opacity:1; stop-color:#FFC107"/>
   <stop offset="0.219608" style="stop-opacity:1; stop-color:#F98D1C"/>
   <stop offset="0.509804" style="stop-opacity:1; stop-color:#F1423B"/>
   <stop offset="0.831373" style="stop-opacity:1; stop-color:#B93088"/>
   <stop offset="1" style="stop-opacity:1; stop-color:#9C27B0"/>
  </linearGradient>
  <linearGradient id="id1" gradientUnits="userSpaceOnUse" xlink:href="#id0" x1="0.531" y1="0.181" x2="0.565" y2="0.148">
  </linearGradient>
  <linearGradient id="id2" gradientUnits="userSpaceOnUse" xlink:href="#id0" x1="0.064" y1="0.649" x2="0.648" y2="0.065">
  </linearGradient>
 </defs>
 <g id="Camada_x0020_1">
  <metadata id="CorelCorpID_0Corel-Layer"/>
  <g id="_1936882153872">
   <g id="_362-instagram">
    <g>
     <path class="fil0" d="M0.49 0l-0.268 0c-0.123,0 -0.222,0.1 -0.222,0.223l0 0.267c0,0.124 0.099,0.225 0.222,0.225l0.268 0c0.123,0 0.225,-0.101 0.225,-0.225l0 -0.267c0,-0.123 -0.102,-0.223 -0.225,-0.223zm0.158 0.49c0,0.087 -0.072,0.157 -0.158,0.157l-0.268 0c-0.086,0 -0.156,-0.07 -0.156,-0.157l0 -0.267c0,-0.086 0.07,-0.157 0.156,-0.157l0.268 0c0.086,0 0.158,0.071 0.158,0.157l0 0.267z"/>
     <path class="fil1" d="M0.356 0.178c-0.098,0 -0.178,0.08 -0.178,0.179 0,0.098 0.08,0.178 0.178,0.178 0.099,0 0.179,-0.08 0.179,-0.178 0,-0.099 -0.08,-0.179 -0.179,-0.179zm0 0.29c-0.061,0 -0.111,-0.05 -0.111,-0.111 0,-0.062 0.05,-0.112 0.111,-0.112 0.062,0 0.112,0.05 0.112,0.112 0,0.061 -0.05,0.111 -0.112,0.111z"/>
     <path class="fil2" d="M0.548 0.141c-0.013,0 -0.024,0.011 -0.024,0.024 0,0.013 0.011,0.024 0.024,0.024 0.013,0 0.024,-0.011 0.024,-0.024 0,-0.013 -0.011,-0.024 -0.024,-0.024z"/>
    </g>
   </g>
   <g id="Layer_1">
   </g>
  </g>
 </g>
</svg>
