<?xml version="1.0" encoding="UTF-8"?>
<!DOCTYPE svg PUBLIC "-//W3C//DTD SVG 1.1//EN" "http://www.w3.org/Graphics/SVG/1.1/DTD/svg11.dtd">
<!-- Creator: CorelDRAW 2019 (64 Bit) -->
<svg xmlns="http://www.w3.org/2000/svg" xml:space="preserve" width="26px" height="26px" version="1.1" style="shape-rendering:geometricPrecision; text-rendering:geometricPrecision; image-rendering:optimizeQuality; fill-rule:evenodd; clip-rule:evenodd"
viewBox="0 0 0.715 0.715"
 xmlns:xlink="http://www.w3.org/1999/xlink">
 <defs>
  <style type="text/css">
   <![CDATA[
    .fil4 {fill:#0F627F}
    .fil1 {fill:#C91E01}
    .fil0 {fill:#E8E8E8}
    .fil2 {fill:#EA3B28}
    .fil3 {fill:white}
   ]]>
  </style>
 </defs>
 <g id="Camada_x0020_1">
  <metadata id="CorelCorpID_0Corel-Layer"/>
  <g id="_1936735159136">
   <g id="Layer_2">
    <circle class="fil0" cx="0.357" cy="0.357" r="0.357"/>
   </g>
   <g id="Layer_1">
    <g>
     <g>
      <path class="fil1" d="M0.357 0.155c-0.089,0 -0.162,0.072 -0.162,0.162 0,0.104 0.117,0.234 0.135,0.254 0.008,0.008 0.014,0.017 0.027,0.017 0.014,0 0.02,-0.009 0.027,-0.017 0.019,-0.02 0.136,-0.15 0.136,-0.254 0,-0.09 -0.073,-0.162 -0.163,-0.162z"/>
     </g>
     <g>
      <path class="fil2" d="M0.357 0.127c-0.089,0 -0.162,0.073 -0.162,0.163 0,0.104 0.117,0.234 0.135,0.254 0.008,0.008 0.014,0.016 0.027,0.016 0.014,0 0.02,-0.008 0.027,-0.016 0.019,-0.02 0.136,-0.15 0.136,-0.254 0,-0.09 -0.073,-0.163 -0.163,-0.163z"/>
     </g>
     <g>
      <circle class="fil3" cx="0.357" cy="0.29" r="0.108"/>
     </g>
     <g>
      <path class="fil4" d="M0.357 0.208c-0.045,0 -0.081,0.037 -0.081,0.082 0,0.045 0.036,0.081 0.081,0.081 0.045,0 0.082,-0.036 0.082,-0.081 0,-0.045 -0.037,-0.082 -0.082,-0.082z"/>
     </g>
    </g>
   </g>
  </g>
 </g>
</svg>
