<?xml version="1.0" encoding="UTF-8"?>
<!DOCTYPE svg PUBLIC "-//W3C//DTD SVG 1.1//EN" "http://www.w3.org/Graphics/SVG/1.1/DTD/svg11.dtd">
<!-- Creator: CorelDRAW 2019 (64 Bit) -->
<svg xmlns="http://www.w3.org/2000/svg" xml:space="preserve" width="26px" height="18px" version="1.1" style="shape-rendering:geometricPrecision; text-rendering:geometricPrecision; image-rendering:optimizeQuality; fill-rule:evenodd; clip-rule:evenodd"
viewBox="0 0 0.665 0.458"
 xmlns:xlink="http://www.w3.org/1999/xlink">
 <defs>
  <style type="text/css">
   <![CDATA[
    .fil0 {fill:#F84437}
    .fil1 {fill:#FCFCFC}
   ]]>
  </style>
 </defs>
 <g id="Camada_x0020_1">
  <metadata id="CorelCorpID_0Corel-Layer"/>
  <g id="_1936882198800">
   <g id="_34-youtube2C_video">
    <g>
     <g>
      <path class="fil0" d="M0.637 0.044c-0.018,-0.032 -0.038,-0.038 -0.078,-0.04 -0.039,-0.003 -0.14,-0.004 -0.226,-0.004 -0.087,0 -0.187,0.001 -0.227,0.004 -0.04,0.002 -0.06,0.008 -0.078,0.04 -0.018,0.032 -0.028,0.088 -0.028,0.185l0 0c0,0.097 0.01,0.153 0.028,0.185 0.018,0.032 0.038,0.038 0.078,0.041 0.04,0.002 0.14,0.003 0.227,0.003 0.086,0 0.187,-0.001 0.226,-0.003 0.04,-0.003 0.06,-0.009 0.078,-0.041 0.019,-0.032 0.028,-0.087 0.028,-0.185l0 0c0,-0.097 -0.009,-0.153 -0.028,-0.185l0 0zm0 0z"/>
      <path class="fil1" d="M0.249 0.354l0 -0.25 0.208 0.125 -0.208 0.125zm0 0z"/>
     </g>
    </g>
   </g>
   <g id="Layer_1">
   </g>
  </g>
 </g>
</svg>
