<?xml version="1.0" encoding="UTF-8"?>
<!DOCTYPE svg PUBLIC "-//W3C//DTD SVG 1.1//EN" "http://www.w3.org/Graphics/SVG/1.1/DTD/svg11.dtd">
<!-- Creator: CorelDRAW 2019 (64 Bit) -->
<svg xmlns="http://www.w3.org/2000/svg" xml:space="preserve" width="26px" height="26px" version="1.1" style="shape-rendering:geometricPrecision; text-rendering:geometricPrecision; image-rendering:optimizeQuality; fill-rule:evenodd; clip-rule:evenodd"
viewBox="0 0 0.665 0.665"
 xmlns:xlink="http://www.w3.org/1999/xlink">
 <defs>
  <style type="text/css">
   <![CDATA[
    .fil0 {fill:#FF5607}
    .fil1 {fill:white}
   ]]>
  </style>
 </defs>
 <g id="Camada_x0020_1">
  <metadata id="CorelCorpID_0Corel-Layer"/>
  <g id="_1934921440912">
   <g>
    <path class="fil0" d="M0.074 0.665l0.517 0c0.041,0 0.074,-0.033 0.074,-0.074l0 -0.517c0,-0.041 -0.033,-0.074 -0.074,-0.074l-0.517 0c-0.041,0 -0.074,0.033 -0.074,0.074l0 0.517c0,0.041 0.033,0.074 0.074,0.074z"/>
    <g>
     <path class="fil1" d="M0.411 0.437l-0.148 0c-0.014,0 -0.026,-0.011 -0.026,-0.025 0,-0.014 0.012,-0.025 0.026,-0.025l0.148 0c0.014,0 0.025,0.011 0.025,0.025 0,0.014 -0.011,0.025 -0.025,0.025l0 0zm-0.148 -0.2l0.073 0c0.014,0 0.025,0.011 0.025,0.025 0,0.013 -0.011,0.025 -0.025,0.025l-0.073 0c-0.014,0 -0.026,-0.012 -0.026,-0.025 0,-0.014 0.012,-0.025 0.026,-0.025l0 0zm0.271 0.053c-0.008,-0.004 -0.046,0.001 -0.056,-0.009 -0.008,-0.007 -0.008,-0.019 -0.011,-0.035 -0.005,-0.028 -0.007,-0.034 -0.012,-0.045 -0.018,-0.039 -0.062,-0.072 -0.102,-0.072l-0.092 0c-0.072,0 -0.132,0.059 -0.132,0.132l0 0.153c0,0.072 0.06,0.131 0.132,0.131l0.151 0c0.073,0 0.132,-0.059 0.132,-0.131l0.001 -0.106c0,0 0,-0.013 -0.011,-0.018z"/>
    </g>
   </g>
  </g>
 </g>
</svg>
