<?xml version="1.0" encoding="UTF-8"?>
<!DOCTYPE svg PUBLIC "-//W3C//DTD SVG 1.1//EN" "http://www.w3.org/Graphics/SVG/1.1/DTD/svg11.dtd">
<!-- Creator: CorelDRAW 2019 (64 Bit) -->
<svg xmlns="http://www.w3.org/2000/svg" xml:space="preserve" width="26px" height="26px" version="1.1" style="shape-rendering:geometricPrecision; text-rendering:geometricPrecision; image-rendering:optimizeQuality; fill-rule:evenodd; clip-rule:evenodd"
viewBox="0 0 0.768 0.768"
 xmlns:xlink="http://www.w3.org/1999/xlink">
 <defs>
  <style type="text/css">
   <![CDATA[
    .fil0 {fill:#1AA6B8}
    .fil1 {fill:#24B9CC}
    .fil5 {fill:#5CD4E3}
    .fil4 {fill:#80DEEA}
    .fil3 {fill:#D7D4D4}
    .fil2 {fill:#EAE8E8}
    .fil6 {fill:#FF6E40}
   ]]>
  </style>
 </defs>
 <g id="Camada_x0020_1">
  <metadata id="CorelCorpID_0Corel-Layer"/>
  <g id="_1936889215760">
   <g id="email">
    <g id="email-2" data-name="email">
     <rect class="fil0" y="0.288" width="0.768" height="0.416"/>
     <polygon class="fil1" points="0.768,0.289 0,0.289 0.384,0 "/>
     <polygon class="fil2" points="0.594,0.065 0.059,0.065 0.059,0.576 0.708,0.576 0.708,0.189 "/>
     <polygon class="fil3" points="0.594,0.065 0.594,0.189 0.708,0.189 "/>
     <polygon class="fil4" points="0.768,0.288 0.768,0.768 0.384,0.512 "/>
     <polygon class="fil4" points="0.384,0.512 0,0.768 0,0.288 "/>
     <polygon class="fil5" points="0.768,0.768 0,0.768 0.384,0.512 "/>
     <path class="fil6" d="M0.384 0.16c0,0 0,0 0,0 -0.071,0 -0.128,0.057 -0.128,0.128 0,0.07 0.057,0.128 0.128,0.128 0.03,0 0.06,-0.011 0.083,-0.031l-0.016 -0.019c-0.019,0.016 -0.043,0.025 -0.067,0.025 -0.057,0 -0.103,-0.046 -0.103,-0.103 0,-0.056 0.046,-0.102 0.103,-0.102 0.056,0 0.102,0.045 0.102,0.102l0 0.019c0,0.011 -0.008,0.019 -0.019,0.019 -0.011,0 -0.019,-0.008 -0.019,-0.019l0 -0.083 -0.026 0 0 0.013c-0.011,-0.008 -0.024,-0.013 -0.038,-0.013 0,0 0,0 0,0 -0.036,0 -0.064,0.029 -0.064,0.064 0,0.035 0.028,0.064 0.064,0.064 0.017,0 0.034,-0.007 0.046,-0.02 0.008,0.013 0.022,0.021 0.037,0.021 0.023,0 0.042,-0.017 0.045,-0.04l0 0 0 -0.025c0,-0.071 -0.058,-0.128 -0.128,-0.128zm0 0.166c-0.021,0 -0.039,-0.017 -0.039,-0.038 0,-0.021 0.018,-0.039 0.039,-0.039 0.021,0 0.038,0.018 0.038,0.039 0,0.021 -0.017,0.038 -0.038,0.038z"/>
    </g>
   </g>
  </g>
 </g>
</svg>
