<?xml version="1.0" encoding="UTF-8"?>
<!DOCTYPE svg PUBLIC "-//W3C//DTD SVG 1.1//EN" "http://www.w3.org/Graphics/SVG/1.1/DTD/svg11.dtd">
<!-- Creator: CorelDRAW 2019 (64 Bit) -->
<svg xmlns="http://www.w3.org/2000/svg" xml:space="preserve" width="26px" height="26px" version="1.1" style="shape-rendering:geometricPrecision; text-rendering:geometricPrecision; image-rendering:optimizeQuality; fill-rule:evenodd; clip-rule:evenodd"
viewBox="0 0 0.831 0.831"
 xmlns:xlink="http://www.w3.org/1999/xlink">
 <defs>
  <style type="text/css">
   <![CDATA[
    .fil0 {fill:#2DC100}
    .fil1 {fill:#FEFEFE}
   ]]>
  </style>
 </defs>
 <g id="Camada_x0020_1">
  <metadata id="CorelCorpID_0Corel-Layer"/>
  <g id="_1936889225872">
   <g id="Layer_x0020_1">
    <g id="_320501824">
     <path class="fil0" d="M0.079 0l0.673 0c0.044,0 0.079,0.035 0.079,0.079l0 0.673c0,0.044 -0.035,0.079 -0.079,0.079l-0.673 0c-0.044,0 -0.079,-0.035 -0.079,-0.079l0 -0.673c0,-0.044 0.035,-0.079 0.079,-0.079z"/>
     <g>
      <path class="fil1" d="M0.442 0.141c0.153,0.02 0.223,0.095 0.244,0.248 0,0 0,0 0,0 0,0.016 0,0.033 0.017,0.033 0.016,0 0.016,-0.013 0.016,-0.025 0,0 0,-0.004 0,-0.008 0.004,-0.145 -0.124,-0.277 -0.273,-0.282 -0.012,0 -0.037,-0.008 -0.037,0.017 0,0.017 0.021,0.012 0.033,0.017l0 0z"/>
      <path class="fil1" d="M0.471 0.182c-0.016,-0.004 -0.033,-0.008 -0.037,0.008 -0.004,0.025 0.017,0.021 0.033,0.025 0.095,0.021 0.128,0.054 0.145,0.149 0,0.004 0,0.008 0,0.012 0,0.008 0.004,0.021 0.02,0.017 0.009,0 0.013,-0.004 0.013,-0.013 0,-0.004 0,-0.012 0,-0.016 0,-0.091 -0.079,-0.174 -0.174,-0.182l0 0z"/>
      <path class="fil1" d="M0.479 0.252c-0.008,0 -0.02,0.004 -0.02,0.013 -0.008,0.016 0.004,0.02 0.016,0.02 0.038,0.008 0.058,0.029 0.062,0.066 0,0.009 0.004,0.013 0.004,0.017 0.005,0 0.009,0.004 0.017,0.004 0,0 0.004,-0.004 0.004,-0.004 0.008,-0.004 0.008,-0.013 0.008,-0.021 0,-0.045 -0.049,-0.095 -0.091,-0.095l0 0z"/>
      <path class="fil1" d="M0.678 0.554c-0.021,-0.017 -0.041,-0.029 -0.058,-0.041 -0.041,-0.029 -0.079,-0.029 -0.112,0.012 -0.016,0.025 -0.037,0.029 -0.062,0.016 -0.07,-0.028 -0.124,-0.078 -0.153,-0.144 -0.004,-0.013 -0.008,-0.021 -0.008,-0.033 -0.004,-0.017 0.004,-0.033 0.025,-0.046 0.017,-0.012 0.033,-0.025 0.033,-0.049 0,-0.033 -0.083,-0.141 -0.112,-0.153 -0.012,-0.004 -0.024,-0.004 -0.041,0 -0.074,0.025 -0.103,0.087 -0.074,0.157 0.016,0.037 0.037,0.074 0.058,0.107 0.091,0.153 0.223,0.265 0.396,0.335 0.013,0.008 0.025,0.008 0.029,0.012 0.05,0 0.108,-0.045 0.124,-0.09 0.013,-0.046 -0.02,-0.062 -0.045,-0.083l0 0z"/>
     </g>
    </g>
   </g>
  </g>
 </g>
</svg>
