<?xml version="1.0" encoding="UTF-8"?>
<!DOCTYPE svg PUBLIC "-//W3C//DTD SVG 1.1//EN" "http://www.w3.org/Graphics/SVG/1.1/DTD/svg11.dtd">
<!-- Creator: CorelDRAW 2019 (64 Bit) -->
<svg xmlns="http://www.w3.org/2000/svg" xml:space="preserve" width="26px" height="26px" version="1.1" style="shape-rendering:geometricPrecision; text-rendering:geometricPrecision; image-rendering:optimizeQuality; fill-rule:evenodd; clip-rule:evenodd"
viewBox="0 0 0.831 0.831"
 xmlns:xlink="http://www.w3.org/1999/xlink">
 <defs>
  <style type="text/css">
   <![CDATA[
    .fil0 {fill:#5ACF5F}
    .fil1 {fill:#FCFCFC}
   ]]>
  </style>
 </defs>
 <g id="Camada_x0020_1">
  <metadata id="CorelCorpID_0Corel-Layer"/>
  <g id="_1936737725520">
   <g id="_313-whatsapp">
    <g>
     <g>
      <path class="fil0" d="M0.416 0l-0.001 0c-0.229,0 -0.415,0.186 -0.415,0.415 0,0.091 0.029,0.176 0.079,0.244l-0.052 0.154 0.16 -0.051c0.066,0.044 0.144,0.069 0.229,0.069 0.229,0 0.415,-0.187 0.415,-0.416 0,-0.229 -0.186,-0.415 -0.415,-0.415l0 0zm0 0z"/>
      <path class="fil1" d="M0.657 0.587c-0.01,0.028 -0.05,0.051 -0.081,0.058 -0.022,0.005 -0.05,0.009 -0.146,-0.031 -0.122,-0.051 -0.2,-0.175 -0.207,-0.183 -0.005,-0.008 -0.049,-0.065 -0.049,-0.125 0,-0.06 0.03,-0.089 0.043,-0.101 0.01,-0.01 0.026,-0.015 0.042,-0.015 0.005,0 0.01,0 0.014,0 0.012,0.001 0.018,0.002 0.026,0.021 0.01,0.024 0.035,0.084 0.038,0.09 0.003,0.006 0.006,0.014 0.001,0.022 -0.003,0.009 -0.007,0.012 -0.013,0.019 -0.006,0.007 -0.012,0.013 -0.018,0.02 -0.006,0.007 -0.012,0.014 -0.005,0.026 0.007,0.012 0.031,0.052 0.067,0.084 0.047,0.041 0.084,0.055 0.098,0.06 0.01,0.004 0.022,0.003 0.029,-0.004 0.009,-0.011 0.021,-0.027 0.033,-0.043 0.008,-0.012 0.018,-0.014 0.029,-0.01 0.012,0.004 0.071,0.034 0.083,0.04 0.012,0.006 0.02,0.009 0.023,0.014 0.003,0.005 0.003,0.029 -0.007,0.058l0 0zm0 0z"/>
     </g>
    </g>
   </g>
   <g id="Layer_1">
   </g>
  </g>
 </g>
</svg>
